<svg xmlns="http://www.w3.org/2000/svg" viewBox="0 0 26.13 45.26"><g data-name="Layer 2"><path d="M0 35.27V12.73a1.13 1.13 0 00.08-.24A7.34 7.34 0 014 7a7.71 7.71 0 013-.87V4.66A4.67 4.67 0 0111 .1a24.49 24.49 0 013.16-.1 4.76 4.76 0 015 5v1.05c.53.11 1 .17 1.48.3a7.38 7.38 0 015.47 7.31v21.63H0M16.32 5.36a2 2 0 00-2.12-2.54h-2.42a2 2 0 00-1.95 2.54zM0 37.13h26.1a4.24 4.24 0 01-1.1 3.66 4.39 4.39 0 01-3.62 1v1.62a1.65 1.65 0 01-1.07 1.82h-.7a1.71 1.71 0 01-1.05-1.88v-1.51h-11v1.51a1.71 1.71 0 01-1 1.88h-.7a1.64 1.64 0 01-1.07-1.81v-1.61h-.95a3.55 3.55 0 01-3.09-1.52A9.34 9.34 0 010 38.45z" fill="#253651" data-name="Layer 1"/></g></svg>