<svg xmlns="http://www.w3.org/2000/svg" viewBox="0 0 36.15 34.58"><g data-name="Layer 2"><path d="M36.15 33.21a3.91 3.91 0 01-.62 1 1.56 1.56 0 01-1 .34h-6.46A1.5 1.5 0 0126.49 33V15.24a1.5 1.5 0 011.65-1.61h6.24a1.62 1.62 0 011.71 1.26.47.47 0 00.06.09zm-22.83-6.46v-6A1.57 1.57 0 0115.11 19h6.08A1.57 1.57 0 0123 20.75v12.06a1.56 1.56 0 01-1.77 1.77H15a1.54 1.54 0 01-1.71-1.71v-6.12M27.56 6.58l-4 2.62L6.31 20.54a2.58 2.58 0 01-.74.33 1.44 1.44 0 01-1.71-.93 1.46 1.46 0 01.59-1.88L16 10.41l9.47-6.26.24-.15-.94-1.29c-.13-.19-.26-.36-.37-.56A1.36 1.36 0 0125.53 0H32a1.43 1.43 0 011.5 2.06l-2 6.1a1.29 1.29 0 01-1.05 1 1.5 1.5 0 01-1.56-.64c-.45-.62-.89-1.26-1.35-1.94M9.64 29.24v3.66A1.52 1.52 0 018 34.58H1.71A1.54 1.54 0 010 32.87v-7.28a1.63 1.63 0 011.74-1.72h6.2a1.54 1.54 0 011.7 1.71v3.66" fill="#253651" data-name="Layer 1"/></g></svg>