<svg xmlns="http://www.w3.org/2000/svg" viewBox="0 0 25 25"><g data-name="Layer 2"><path d="M0 21.14c.06-.27.1-.55.18-.83a4.89 4.89 0 014.67-3.64h7a4.91 4.91 0 014.82 4.4 15.89 15.89 0 010 1.69V25H0zM21.87 2.85a3 3 0 013.13 3 2.93 2.93 0 01-3.13 2.75v1a1.79 1.79 0 01-.75 1.46 1.72 1.72 0 01-1.09.36h-5.47V9.9a6.07 6.07 0 00-3.86-5.28.39.39 0 01-.28-.44V1.93a1.83 1.83 0 011.95-2h1.86A.8.8 0 0115 1.24a1.22 1.22 0 00.13 1.38 1.23 1.23 0 001.25.48 1.24 1.24 0 001-1 1.28 1.28 0 00-.09-.9.8.8 0 01.8-1.2H20a1.82 1.82 0 011.88 1.88v1m-9.38 7.53a4.17 4.17 0 11-4.16-4.16 4.19 4.19 0 014.16 4.16" fill="#fff" data-name="Layer 1"/></g></svg>