<svg xmlns="http://www.w3.org/2000/svg" viewBox="0 0 33 33"><g data-name="Layer 2"><path d="M0 15.8V3.3s.05 0 .05-.08A3.84 3.84 0 014 0h11.79v15.8H0m8.59-6.51h1.27a1 1 0 100-2.06H8.59V5.97a1.48 1.48 0 00-.06-.47 1 1 0 00-1.13-.66 1 1 0 00-.87 1v1.38H5.25a1 1 0 100 2.06h1.28v1.28a1 1 0 102.06 0V9.29M0 29.71v-12.5h15.81v15.74H3.29l-.14-.06A3.79 3.79 0 01.7 31.41a5 5 0 01-.7-1.7m6.48-4.62c-.35.34-.66.63-1 .94A1 1 0 107 27.48l.92-1c.33.34.62.65.93.95A1 1 0 1010.29 26c-.3-.3-.62-.59-1-.93.39-.37.74-.68 1.06-1a1 1 0 00-1.51-1.4l-1 1c-.34-.35-.63-.66-.94-1a1 1 0 10-1.45 1.46l1 .93M29.71 33h-12.5a1.64 1.64 0 010-.22v-15.3a2.46 2.46 0 010-.26H33a1.5 1.5 0 010 .2V29.3a3.67 3.67 0 01-1.5 2.94 4.69 4.69 0 01-1.78.76m-4.65-8.94h3a1 1 0 001.12-1 1 1 0 00-1.11-1h-6a1.36 1.36 0 00-.62.16A1 1 0 0021 23.3a1 1 0 001 .76h3.09m0 4.12h2.93a1.74 1.74 0 00.51-.06 1 1 0 00.66-1.12 1 1 0 00-1.1-.84h-6a1.07 1.07 0 00-1.14 1 1 1 0 001.15 1h3M33 15.8H17.22V0h11.92A3.79 3.79 0 0133 3.86V15.8zm-7.55-8.91h-3a1.72 1.72 0 00-.59.12 1 1 0 00-.52 1.17 1.08 1.08 0 001.1.77h6a1.06 1.06 0 001.16-1 1 1 0 00-1.15-1h-3" fill="#253651" data-name="Layer 1"/></g></svg>