<svg xmlns="http://www.w3.org/2000/svg" viewBox="0 0 24 23.98"><g data-name="Layer 2"><g data-name="Layer 1"><path d="M12.71 24h-1.4c-.45-.06-.9-.11-1.34-.19A11.5 11.5 0 012.29 19 11.64 11.64 0 01.83 7.68 12 12 0 0111.51 0a11.73 11.73 0 017 1.94 11.83 11.83 0 015.26 8c.08.44.12.89.18 1.34v1.4c0 .31-.07.62-.11.93a11.87 11.87 0 01-3.76 7.18 11.71 11.71 0 01-6.08 3c-.44.07-.89.12-1.34.18M5.7 8.8a4.55 4.55 0 00.47 1.89A12.94 12.94 0 009 14.75a12.66 12.66 0 005.4 3.36 3.16 3.16 0 002.34-.2 5.1 5.1 0 001.37-1.12.54.54 0 000-.9L16 13.82a.54.54 0 00-.9 0L14 15a1.07 1.07 0 01-1.5.12A15.77 15.77 0 019 11.67a1.09 1.09 0 01.11-1.59l1.15-1.18a.53.53 0 000-.84L8.13 5.93a.52.52 0 00-.83 0c-.22.2-.42.41-.63.62a3.28 3.28 0 00-1 2.24" fill="#253651"/><path d="M5.7 8.8a3.28 3.28 0 011-2.24c.21-.21.41-.42.63-.62a.52.52 0 01.83 0l2.14 2.13a.53.53 0 010 .84l-1.21 1.17A1.09 1.09 0 009 11.67a15.77 15.77 0 003.5 3.42A1.07 1.07 0 0014 15l1.14-1.15a.54.54 0 01.9 0l2.07 2.07a.54.54 0 010 .9 5.1 5.1 0 01-1.37 1.12 3.16 3.16 0 01-2.34.2A12.66 12.66 0 019 14.75a12.94 12.94 0 01-2.8-4.06 4.55 4.55 0 01-.5-1.89" fill="#fff"/></g></g></svg>