<svg xmlns="http://www.w3.org/2000/svg" viewBox="0 0 50.95 32.98"><defs><style>.cls-1{fill:#253651}</style></defs><g id="Layer_2" data-name="Layer 2"><g id="Layer_1-2" data-name="Layer 1"><path class="cls-1" d="M25.46 33H5.58a5.42 5.42 0 01-5.37-4A5.26 5.26 0 010 27.56V5.43A5.42 5.42 0 015.51 0h39.82a5.44 5.44 0 015.41 4 5.21 5.21 0 01.2 1.47V27.6a5.43 5.43 0 01-5.57 5.4H25.46m0-3V3H5.66A2.59 2.59 0 003 5.66v21.67A2.58 2.58 0 005.66 30h19.77m11.26-12.15h7.41a1.35 1.35 0 100-2.7H29.3a1.36 1.36 0 100 2.71h7.36m.06-7.7h-7.53A1.28 1.28 0 0028 11a1.3 1.3 0 00.32 1.44 1.5 1.5 0 001.16.39H44.3a1.33 1.33 0 001.22-1 1.35 1.35 0 00-1.4-1.66h-7.37m-3.58 10h-3.93a1.34 1.34 0 100 2.68h7.86a1.59 1.59 0 00.92-.37 1.24 1.24 0 00.35-1.48 1.31 1.31 0 00-1.26-.87h-3.94"/><path class="cls-1" d="M20.18 24.9H7.87v-3.48A5.26 5.26 0 0112.79 16a10.35 10.35 0 013.33.12 5.28 5.28 0 014.07 5.13v3.51a1.54 1.54 0 010 .19M14 13.77a3.3 3.3 0 113.32-3.28A3.29 3.29 0 0114 13.77"/></g></g></svg>