<svg xmlns="http://www.w3.org/2000/svg" viewBox="0 0 40 40"><defs><style>.cls-1{fill:#253651}</style></defs><g id="Layer_2" data-name="Layer 2"><g id="Layer_1-2" data-name="Layer 1"><path class="cls-1" d="M40 21.64a16.56 16.56 0 01-.92 1.65C37.06 26.21 35 29.11 33 32a7.18 7.18 0 01-6.29 3.28H14a.47.47 0 01-.51-.3q-3.18-6.41-6.38-12.81L7 22a11.89 11.89 0 014.77-3.1 8 8 0 017.93 1.73 2.5 2.5 0 001.83.67H27a2.34 2.34 0 110 4.68h-4.58a1.16 1.16 0 00-1.16 1.59 1.06 1.06 0 001 .74h5.55a2.41 2.41 0 001.88-1l6-7.4a2.32 2.32 0 012.42-.91 2.24 2.24 0 011.83 1.81.47.47 0 00.06.09zM21.72 0a5.63 5.63 0 012.36 1 4.81 4.81 0 011.46 5.43A4.72 4.72 0 0121 9.52a4.84 4.84 0 01-4.58-4.42 4.84 4.84 0 013.91-5l.29-.1zM3.25 22.67a2.49 2.49 0 012.2 1.54C7.33 28 9.23 31.77 11.1 35.55a3.81 3.81 0 01.44 1.36 2.23 2.23 0 01-1.34 2.23c-.44.23-.88.45-1.33.66a1.19 1.19 0 01-1.8-.61l-4.66-9.32-2.2-4.39a1.21 1.21 0 01.63-1.86c.53-.26 1-.52 1.59-.75a5.77 5.77 0 01.82-.2"/><path class="cls-1" d="M15.83 9.49a7.12 7.12 0 0010.55.06 6.67 6.67 0 011.73 3.63 19.77 19.77 0 01.09 2.18 1.15 1.15 0 01-1.2 1.2H15.48c-1 0-1.39-.43-1.41-1.4a7.64 7.64 0 01.71-3.94c.3-.58.69-1.12 1.06-1.73"/></g></g></svg>