<svg xmlns="http://www.w3.org/2000/svg" viewBox="0 0 25.19 25"><g data-name="Layer 2"><path d="M0 24.16V1.53a.5.5 0 00.05-.13A1.84 1.84 0 012.19 0l5.39.85c2 .3 4 .59 6 .91a1.8 1.8 0 011.65 2V25h-4.47v-5.4a1.83 1.83 0 00-1.94-2H6.39a2.42 2.42 0 00-.47 0 1.8 1.8 0 00-1.45 1.84V25H1.31A1.18 1.18 0 010 24.16M5 5.85h.79a.78.78 0 00.79-.8.76.76 0 00-.81-.77h-1.5a.78.78 0 00-.83.77.82.82 0 00.83.8H5m0 1.57h-.84a.77.77 0 00-.75.73.74.74 0 00.65.8A14.43 14.43 0 005.92 9a.72.72 0 00.63-.83.76.76 0 00-.75-.7H5m0 3.15h-.84a.78.78 0 00-.75.74.74.74 0 00.64.8 14.59 14.59 0 001.87 0 .73.73 0 00.63-.83.77.77 0 00-.75-.71H5m0 3.15h-.82a.78.78 0 00-.77.74.76.76 0 00.67.81 15.8 15.8 0 001.82 0 .72.72 0 00.65-.83.77.77 0 00-.75-.71H5m5.25-9.44h-.81a.77.77 0 00-.78.66.75.75 0 00.67.83 13.67 13.67 0 001.81 0A.74.74 0 0011.8 5a.77.77 0 00-.75-.73h-.81m0 3.14h-.8a.79.79 0 00-.78.73.75.75 0 00.68.86 13.37 13.37 0 001.79 0 .75.75 0 00.67-.83.79.79 0 00-.8-.75h-.79m0 4.72H11a.79.79 0 100-1.57H9.5a.78.78 0 00-.84.77.79.79 0 00.84.8h.72m0 3.15h.76a.79.79 0 00.82-.79.78.78 0 00-.83-.78H9.5a.78.78 0 00-.84.77.8.8 0 00.84.8h.72M16.28 25V9.63l1.12.23 6.24 1.31a1.82 1.82 0 011.54 1.9v10A1.83 1.83 0 0123.24 25h-7zm4.18-11h-.78a.77.77 0 00-.79.77.79.79 0 00.77.8h1.6a.79.79 0 100-1.57h-.79m0 4.72h.84a.78.78 0 000-1.56h-1.6a.77.77 0 00-.78.78.8.8 0 00.78.79h.76m0 3.14h.77a.79.79 0 00.82-.79.8.8 0 00-.82-.78H19.7a.79.79 0 100 1.57h.76" fill="#fff" data-name="Layer 1"/></g></svg>