<svg xmlns="http://www.w3.org/2000/svg" viewBox="0 0 37.18 37.62"><defs><style>.cls-1{fill:#253651}</style></defs><g id="Layer_2" data-name="Layer 2"><g id="Layer_1-2" data-name="Layer 1"><path class="cls-1" d="M0 33.76V11.07h4.81c3.38-.08 5.44-1.91 5.75-5.28.16-1.67.07-3.36.08-5V.21h15.52a10.37 10.37 0 011.36.1 2.93 2.93 0 012.72 2.24 7.57 7.57 0 01.23 1.71v6.45a.83.83 0 010 .21c-1.52 0-3-.14-4.49-.06a9.49 9.49 0 00-2.88.6 8.84 8.84 0 00-5.63 8.45 1 1 0 01-.51 1 3.86 3.86 0 00-2 3.64v6.59a11.88 11.88 0 00.58 2.86 9.13 9.13 0 002.28 3.63H3.49a2.37 2.37 0 00-.36-.09 3 3 0 01-3-2.76c-.07-.34-.12-.68-.17-1"/><path class="cls-1" d="M31 37.62h-7.34a2 2 0 00-.35-.09 6.73 6.73 0 01-5.76-6.08c-.14-2.52-.08-5.05-.06-7.57a1.79 1.79 0 011.3-1.69A8.49 8.49 0 0120 21.9v-2.58a6.21 6.21 0 014.73-6 19.69 19.69 0 013.93-.22 5.56 5.56 0 013.44 1.22 6.27 6.27 0 012.61 5.13v2.49h.48a2 2 0 012 1.95v7.05a6.73 6.73 0 01-4.69 6.25c-.47.15-1 .25-1.44.37M30.92 22a.68.68 0 000-.23v-2.59a2.53 2.53 0 00-2.52-2.33h-2.21a2.47 2.47 0 00-2.45 2.12 22.41 22.41 0 00-.08 2.72V22zm-5.38 7.76v1.22a1.8 1.8 0 003.58.06V28.5a1.79 1.79 0 00-3.58 0v1.22M0 8.24A11.09 11.09 0 01.9 7q3-3.1 6-6.18A8.79 8.79 0 018.07 0a4.58 4.58 0 010 .54c0 1.78 0 3.57-.1 5.36s-.76 2.42-2.46 2.53-3.67.07-5.51.09zm0 25.52c.05.33.1.67.17 1a3 3 0 003 2.76 2.37 2.37 0 01.36.09H0z"/></g></g></svg>