<svg xmlns="http://www.w3.org/2000/svg" viewBox="0 0 25 20.5"><defs><style>.cls-1{fill:#fff}</style></defs><g id="Layer_2" data-name="Layer 2"><g id="Layer_1-2" data-name="Layer 1"><path class="cls-1" d="M0 10.06V4.88a2.15 2.15 0 012.46-1.69h4.37v-.16a3.78 3.78 0 013.76-3h3.78a3.79 3.79 0 013.67 3c.05.19.11.23.29.23h4.44A2.1 2.1 0 0125 5.35v4.27a2 2 0 01-2.13 2.14h-8.19a2.21 2.21 0 00-2.15-2.06 2.08 2.08 0 00-1.34.44 2.17 2.17 0 00-.86 1.6h-8.4a1.92 1.92 0 01-1.84-1.41L0 10.06m8.8-6.89h7.39a1.83 1.83 0 00-1.71-1.3h-4a1.82 1.82 0 00-1.68 1.3M.5 12.9a5.16 5.16 0 002.5.34h7.15a.35.35 0 01.38.24 2.14 2.14 0 003.94 0 .35.35 0 01.38-.23h7.88a4 4 0 001.76-.34v5.44a2 2 0 01-2.15 2.15H2.65A2 2 0 01.5 18.35V12.9z"/><path class="cls-1" d="M13.74 12.3a4.34 4.34 0 01-.08.63 1.22 1.22 0 01-2.38-.32v-.63a1.23 1.23 0 012.45 0v.32"/></g></g></svg>