<svg xmlns="http://www.w3.org/2000/svg" viewBox="0 0 63.93 37.88"><g data-name="Layer 2"><path d="M18 10a3.09 3.09 0 01.82.31 6.71 6.71 0 002.37.87 8.78 8.78 0 002.17.09c.74 0 1.48.1 2.21.17a5.92 5.92 0 011 .14 30.51 30.51 0 005.12.73 7.55 7.55 0 001.63-.19c1.58-.25 3.15-.5 4.72-.77a1.37 1.37 0 00.5-.18c1-.55 2-1.12 3-1.67a.7.7 0 01.41-.07 4 4 0 01.77.12 2.42 2.42 0 001.5-.29c1.24-.44 2.44-1 3.67-1.41A9 9 0 0049.37 7 17.77 17.77 0 0151 6.22a1.46 1.46 0 00.44-.29c.31-.31.62-.63.91-1a1.45 1.45 0 01.68-.39c1.13-.31 2.25-.64 3.37-1h.11a16.53 16.53 0 013-1.59l4-1.84a2.93 2.93 0 01.42-.11 1.77 1.77 0 00-.38 1.26.47.47 0 01-.45.5 2.36 2.36 0 00-.71.27 31.74 31.74 0 00-4.91 3.65 13 13 0 01-1.92 1.22c-1.32.81-2.68 1.57-4 2.42a4.69 4.69 0 00-1.91 2.36l-.06.14c-.36.85-.67 1.12-1.76.89l-.56-.1a1 1 0 00-1.09.45 4.52 4.52 0 00-1.08 2c-.1.87-.15 1.75-.21 2.63A.28.28 0 0045 18c.43.43.88.85 1.3 1.29a1 1 0 01.29.45 2.38 2.38 0 00.81 1.09c.48.42 1 .84 1.42 1.29a1.93 1.93 0 01.33.56c.27.54.53 1.08.81 1.62a1.71 1.71 0 00.33.36 8.23 8.23 0 01-1.06-.11 1.44 1.44 0 01-.94-.47.8.8 0 00-.59-.17 8.71 8.71 0 00-2.31.47 1.6 1.6 0 00-.84.6l-.12.17a.7.7 0 01-1.19.07c0-.06-.12-.11-.17-.17a2.81 2.81 0 00-2.38-.89 3.66 3.66 0 00-1.52.28 2.33 2.33 0 00-1.25 1.22 4.15 4.15 0 00-.38 2.31.47.47 0 01-.28.56.74.74 0 00-.29.41c-.18.54-.29.63-.86.64a1.47 1.47 0 01-.21 0 1.23 1.23 0 00-1.33.65 1.44 1.44 0 01-.93.65c-.47.12-.92.33-1.38.49a4.91 4.91 0 01-.66.17.27.27 0 01-.2-.08 1.83 1.83 0 00-.35-.31v.66A.39.39 0 0131 32a2.64 2.64 0 01-1.09.53 8.74 8.74 0 00-1.35.28 3.45 3.45 0 00-.92.41 1.47 1.47 0 01-1.07.27 9.65 9.65 0 00-1.4-.15c-.51 0-1 .09-1.53.09a2.81 2.81 0 00-2.17 1 5.2 5.2 0 00-.89 1 2.19 2.19 0 00-.22 1.27 1.53 1.53 0 00.3.56c.1.16.2.31.34.51h-2.56a.94.94 0 010-.29 1.3 1.3 0 00-.2-1.08 3.6 3.6 0 01-.58-1.43c0-.06-.09-.15-.16-.17-.55-.14-1.1-.26-1.66-.39a2.28 2.28 0 00-1.29.15 9.8 9.8 0 01-2.13.61 3.69 3.69 0 01-1.78-.17A10.22 10.22 0 019 34.13a4.56 4.56 0 00-2.41-.82 2.57 2.57 0 01-1.48-.58 4.37 4.37 0 00-.48-.37 2 2 0 01-.91-1.48 12 12 0 00-.75-2.26c-.13-.29-.5-.47-.77-.68a1.89 1.89 0 01-.8-1.32.57.57 0 01.07-.34.49.49 0 000-.65A1.87 1.87 0 011 24.26a2.34 2.34 0 00-.4-1.42 3 3 0 01-.6-1.52 4.13 4.13 0 010-.86.29.29 0 01.48-.2c.33.28.64.58 1 .88a6.19 6.19 0 00.59.55 2 2 0 002 .15 4.76 4.76 0 002.57-2.94 1.75 1.75 0 01.72-1 .49.49 0 00.14-.22c.1-.23.26-.29.45-.14a.68.68 0 00.78 0 4.42 4.42 0 011.09-.38 8.21 8.21 0 011.64.06c.69.08 1.38.21 2.06.35a3.11 3.11 0 01.7.31l1 .48a.34.34 0 00.17 0 3 3 0 001.87-1.07 5.19 5.19 0 001-3.24c0-1 0-1.93-.05-2.9a2.42 2.42 0 00-.17-.64c0-.16-.09-.32-.14-.48L18 10" fill="#fff" data-name="Layer 1"/></g></svg>