<svg xmlns="http://www.w3.org/2000/svg" viewBox="0 0 28 20.29"><defs><style>.cls-1{fill:#fff}</style></defs><g id="Layer_2" data-name="Layer 2"><g id="Layer_1-2" data-name="Layer 1"><path class="cls-1" d="M2.79 9.49c-.16-.2-.32-.38-.5-.59l.15-.21 5.2-6.78a.48.48 0 01.44-.19c.85 0 1.71-.06 2.56-.12s1.77-.17 2.65-.23a4 4 0 011.85.31c-.32.1-.59.18-.85.28-1 .36-2 .74-3 1.09a6.19 6.19 0 01-1.21.25 1.39 1.39 0 00-1 2.31 2.56 2.56 0 002.12 1.15 17.66 17.66 0 002.18-.2l1.11-.15a1.72 1.72 0 011.28.35c.78.57 1.54 1.17 2.3 1.78L22.44 12a1.14 1.14 0 01.41 1.42 1.41 1.41 0 01-1.36.94 1 1 0 01-.47-.2L18.28 12a.63.63 0 00-.37-.17.45.45 0 00-.33.26.57.57 0 00.14.45c.35.32.74.6 1.11.89l.79.64a1.25 1.25 0 01.05 1.78 1.16 1.16 0 01-1.67.22c-.61-.47-1.21-1-1.82-1.44a.39.39 0 00-.53-.07.38.38 0 000 .65l1.21 1a1.18 1.18 0 01.34 1.5 1.39 1.39 0 01-1.42.83 1 1 0 01-.35-.17c-.45-.34-.88-.7-1.31-1-.25-.2-.48-.19-.62 0a.4.4 0 00.12.59c.32.25.62.52.95.75a.58.58 0 01.25.67 1.22 1.22 0 01-.95 1 .91.91 0 01-.61-.11 11.24 11.24 0 01-1-.79 2 2 0 00-1.29-3 2.16 2.16 0 00-.47-2 2.19 2.19 0 00-1.87-.79A2.3 2.3 0 007.94 12a2.1 2.1 0 00-1.74-.61 2.19 2.19 0 00-1.14-2.12 1.83 1.83 0 00-2.27.22"/><path class="cls-1" d="M25.75 9a7 7 0 01-2.39 1.84c-.72.35-.72.35-1.33-.13l-5-4a3.6 3.6 0 00-2.16-1 15.5 15.5 0 00-1.79.18c-.63.06-1.27.15-1.9.15A1.66 1.66 0 0110 5.38a1.88 1.88 0 01-.36-.72.4.4 0 01.34-.5 1.94 1.94 0 01.33-.07A12 12 0 0013.64 3a11.34 11.34 0 013.67-.76 7.93 7.93 0 002.81-.54c.07 0 .23.08.3.16l4.13 5.49L25.75 9M1.67 8.4c-.4-.33-.81-.63-1.17-1a1.45 1.45 0 01-.33-1.75 3.77 3.77 0 01.45-.78q1.49-1.95 3-3.87a3.82 3.82 0 01.64-.65A1.24 1.24 0 015.78.21c.49.29.94.65 1.43 1C5.35 3.63 3.52 6 1.67 8.4m19.19-7.23c.5-.34 1-.69 1.45-1a1.19 1.19 0 011.47.14 5.11 5.11 0 01.8.81c.93 1.21 1.83 2.43 2.74 3.66a4 4 0 01.4.66 1.51 1.51 0 01-.36 2.12c-.32.29-.67.55-1 .85-1.85-2.41-3.66-4.8-5.5-7.24M3.26 13.42A1.4 1.4 0 011.91 12a1.27 1.27 0 01.29-.72A16.23 16.23 0 013.39 10a1 1 0 01.48-.25 1.48 1.48 0 011.41.82A1.14 1.14 0 015 12l-1 1.12a.81.81 0 01-.74.3m2.45 2.33a1.4 1.4 0 01-1.39-1.43 1.4 1.4 0 01.29-.69c.29-.37.64-.69.95-1a1.09 1.09 0 011.17-.44 1.41 1.41 0 011 1 1 1 0 01-.25 1.11c-.37.4-.73.82-1.12 1.19a3.59 3.59 0 01-.66.39v-.08m.95.87A3.81 3.81 0 017 16a14.64 14.64 0 011.21-1.28.93.93 0 01.57-.25 1.4 1.4 0 011.42 1.67 1.23 1.23 0 01-.29.49c-.3.36-.62.69-.94 1a1.1 1.1 0 01-1.35.37 1.62 1.62 0 01-1-1.32m3.82 3.21a1.37 1.37 0 01-1.21-1.05.67.67 0 01.15-.49c.3-.37.66-.71 1-1.07a.33.33 0 01.4-.11 1.5 1.5 0 01.93.76.84.84 0 01-.1 1 6.32 6.32 0 01-.61.65 2.9 2.9 0 01-.54.31"/></g></g></svg>