<svg xmlns="http://www.w3.org/2000/svg" viewBox="0 0 25 17.43"><g data-name="Layer 2"><path d="M25 15.89h-6.65v-.41a6.86 6.86 0 00-.24-2.21 5.29 5.29 0 00-3-3.28 4 4 0 001.16-2.26l.24.19a3.27 3.27 0 002.87.53 4.68 4.68 0 001.82-.78.3.3 0 01.37 0A5.89 5.89 0 0125 12.32a.47.47 0 000 .16zM7 0c.19.05.39.08.58.14A3.54 3.54 0 116.11.05h.15zm11.66 0c.22.05.44.08.66.14A3.54 3.54 0 1117.93 0a.57.57 0 00.14 0zM0 15.89a25.25 25.25 0 01.17-4.18 5.85 5.85 0 013.27-4.07.32.32 0 01.35 0 4.83 4.83 0 003.3.87A3 3 0 008.54 8l.21-.16A4 4 0 009.91 10a5.33 5.33 0 00-2.61 2.39 6.3 6.3 0 00-.59 3.5zm16.86 1.54h-8.7V15a3.73 3.73 0 013.48-3.87 7.13 7.13 0 012.35.09 3.72 3.72 0 012.88 3.62v2.49a.69.69 0 010 .13m-4.37-7.9a2.33 2.33 0 112.35-2.33 2.34 2.34 0 01-2.35 2.33" fill="#fff" data-name="Layer 1"/></g></svg>