<svg xmlns="http://www.w3.org/2000/svg" viewBox="0 0 57.48 42.04"><g data-name="Layer 2"><path d="M4.72 42a1.25 1.25 0 01-.63-1.5c.36-1.9.67-3.81 1-5.72a.8.8 0 00-.27-.78C3.41 32.65 2 31.31.6 30c-.4-.37-.75-.74-.54-1.33s.74-.67 1.26-.73c1.94-.27 3.88-.56 5.81-.82a.85.85 0 00.74-.53c.86-1.75 1.77-3.49 2.64-5.23.23-.46.5-.83 1.06-.81s.77.38 1 .81c.88 1.74 1.78 3.48 2.64 5.23a.84.84 0 00.74.52c2 .26 3.91.56 5.87.83.51.07 1 .15 1.2.71s-.14 1-.54 1.34c-1.41 1.32-2.8 2.67-4.22 4a.82.82 0 00-.29.86c.35 1.9.65 3.81 1 5.71a1.25 1.25 0 01-.64 1.5h-.62c-2-1-4-2.07-6-3.09a.54.54 0 00-.45 0c-2 1-4 2.06-6 3.09zm34.42 0a1.22 1.22 0 01-.64-1.5c.35-1.79.63-3.6 1-5.4a1.24 1.24 0 00-.41-1.34c-1.4-1.26-2.73-2.58-4.1-3.86-.39-.36-.68-.74-.49-1.29s.69-.64 1.19-.71c2-.27 3.92-.56 5.88-.82a.84.84 0 00.73-.53c.87-1.75 1.77-3.49 2.65-5.23a1.07 1.07 0 012 0c.88 1.75 1.78 3.48 2.65 5.23a.83.83 0 00.73.53c2 .26 3.91.56 5.87.83.53.07 1 .17 1.22.76s-.17.93-.55 1.28C55.45 31.32 54 32.66 52.63 34a1 1 0 00-.25.73q.46 2.9 1 5.77a1.26 1.26 0 01-.63 1.5h-.61l-6-3.09a.59.59 0 00-.45 0c-2 1-4 2.06-6 3.09zm-4.03-20.58a5.3 5.3 0 01-.61-.25c-1.68-.85-3.36-1.68-5-2.57a1.41 1.41 0 00-1.53 0c-1.65.89-3.34 1.71-5 2.57a1.19 1.19 0 01-1.34.06c-.45-.33-.42-.79-.33-1.29.34-1.9.66-3.81 1-5.71a.82.82 0 00-.28-.86c-1.45-1.35-2.87-2.72-4.32-4.07a1.11 1.11 0 01-.44-1.25c.17-.49.59-.62 1.07-.68 2-.27 4-.57 5.94-.83a.94.94 0 00.8-.56c.86-1.75 1.77-3.49 2.64-5.24a1.07 1.07 0 012 0c.91 1.76 1.81 3.47 2.67 5.26a1 1 0 00.83.6c2 .26 4 .56 6 .83a1 1 0 01.59 1.9c-1.38 1.29-2.73 2.63-4.14 3.89a1.28 1.28 0 00-.45 1.39c.36 1.88.68 3.77 1 5.65a1 1 0 01-1.1 1.21" fill="#253651" data-name="Layer 1"/></g></svg>