<svg xmlns="http://www.w3.org/2000/svg" viewBox="0 0 41.78 29.13"><g data-name="Layer 2"><path d="M41.78 26.56H30.67v-.69a11 11 0 00-.41-3.7 8.79 8.79 0 00-5-5.47 6.64 6.64 0 001.94-3.78l.4.32a5.53 5.53 0 004.8.88 7.92 7.92 0 003-1.31.51.51 0 01.62-.05 9.82 9.82 0 015.62 7.81 2 2 0 00.08.26zM11.69 0c.33.08.66.14 1 .23a5.93 5.93 0 01-1.49 11.64 6 6 0 01-6-5.47 6 6 0 015-6.32 1.29 1.29 0 00.27-.08zm19.49 0c.37.08.74.14 1.11.24A5.92 5.92 0 1130 .07a2 2 0 00.2-.07zM0 26.55c.14-2.35-.25-4.69.28-7a9.71 9.71 0 015.46-6.81.5.5 0 01.58.05 8 8 0 005.51 1.44 4.85 4.85 0 002.43-1l.36-.26a6.46 6.46 0 001.94 3.69 9 9 0 00-4.38 4 10.65 10.65 0 00-1 5.84zm28.18 2.58H13.64V25a6.22 6.22 0 015.81-6.46 12.13 12.13 0 013.94.14 6.25 6.25 0 014.81 6.06c.05 1.39 0 2.77 0 4.16v.22M20.89 16a3.9 3.9 0 113.93-3.89A3.92 3.92 0 0120.89 16" fill="#253651" data-name="Layer 1"/></g></svg>