<svg xmlns="http://www.w3.org/2000/svg" viewBox="0 0 38.08 20.42"><g data-name="Layer 2"><path d="M28.22 13.52L32 .79 24.68 11 19 0l-5.6 11L6 .79l3.86 12.73L0 7.3l7.93 13.12h22.22L38.08 7.3zm.58-6.18l-2.27 7.24-1.23-2.39zm-19.52 0l3.5 4.85-1.23 2.39zm-.66 11.87l-4.93-8.15 6.7 4.23 1.18 3.92zm4.57 0h-.35L12 16.32l4.72 2.89zm-.61-4l1-1.94 3.23 4.48zM19 18.78l-4.84-6.7L19 2.66l4.84 9.42zm5.46-5.49l1 1.94-4.23 2.54zm.74 5.92h-3.81l4.72-2.89zm4.23 0h-3l1.18-3.92 6.7-4.22z" fill="#fff" data-name="Layer 1"/></g></svg>