<?xml version="1.0" encoding="UTF-8"?> <!-- Generator: Adobe Illustrator 23.0.1, SVG Export Plug-In . SVG Version: 6.00 Build 0) --> <svg xmlns="http://www.w3.org/2000/svg" xmlns:xlink="http://www.w3.org/1999/xlink" version="1.1" id="Layer_1" x="0px" y="0px" viewBox="0 0 20.3 19.4" style="enable-background:new 0 0 20.3 19.4;" xml:space="preserve"> <style type="text/css"> .st0{display:none;} .st1{display:inline;} .st2{fill:#FFFFFF;} .st3{fill-rule:evenodd;clip-rule:evenodd;fill:#FFFFFF;} </style> <title>Asset 4</title> <g class="st0"> <g id="Layer_1-2" class="st1"> <path class="st2" d="M0.3,19.4h4.4V6H0.5C0.3,6,0.3,6,0.3,6.3V19.4z"></path> <path class="st3" d="M20.3,19.4h-4.4v-6.9c0-0.6-0.1-1.1-0.2-1.7c-0.3-0.9-1.1-1.4-2.1-1.3c-1.2,0.1-2.1,1-2.3,2.2 c0,0.2,0,0.4,0,0.6v7.1H7V6.3h4.3v1.8c0.3-0.3,0.5-0.6,0.7-0.8c0.6-0.7,1.5-1.1,2.5-1.2c0.9-0.1,1.8,0,2.6,0.3 c1,0.3,1.8,1.1,2.4,2c0.5,0.8,0.7,1.8,0.7,2.8c0,0.1,0,0.1,0,0.2L20.3,19.4z"></path> <path class="st3" d="M0,1.9C0.1,1.6,0.3,1.3,0.4,1c0.5-0.7,1.4-1.1,2.3-1c0.7,0,1.4,0.4,1.8,1c0.7,1,0.4,2.4-0.7,3.1 c-0.3,0.2-0.7,0.3-1,0.4c-0.6,0.1-1.2,0-1.7-0.3C0.5,3.9,0.1,3.3,0,2.7c0,0,0-0.1,0-0.1V1.9z"></path> <path class="st3" d="M0.3,19.4V6.5c0-0.3,0-0.3,0.3-0.3h4.1v13.1H0.3z"></path> </g> </g> <g> <g> <path class="st2" d="M0.5,9.6c0-1.9,0-3.7,0-5.5C0.5,1.9,2.3,0,4.6,0C8.3,0,12,0,15.7,0c2.3,0,4.1,1.8,4.1,4.1c0,3.7,0,7.4,0,11.1 c0,2.4-1.8,4.2-4.3,4.2c-3.6,0-7.2,0-10.8,0c-2.4,0-4.2-1.8-4.3-4.2C0.4,13.3,0.4,11.5,0.5,9.6L0.5,9.6z M2.1,9.6L2.1,9.6 c0,1.8,0.1,3.5,0,5.3c-0.1,1.8,1.4,2.8,2.8,2.7c3.5-0.1,7-0.1,10.5,0c1.3,0,2.8-0.9,2.7-2.7c-0.1-3.6,0-7.2,0-10.8 c0-1.6-1-2.6-2.6-2.6c-1.1,0-2.2,0-3.3,0c-2.5,0-5,0-7.6,0C3,1.6,2,2.6,2,4.1C2.1,5.9,2.1,7.8,2.1,9.6"></path> <path class="st2" d="M10.1,14.6c-2.8,0-5-2.2-5-4.9c0-2.9,2.2-5.1,5-5.1s5,2.2,5.1,5C15.2,12.4,12.9,14.6,10.1,14.6 M10.1,13.1 c1.9,0,3.4-1.5,3.4-3.4c0-1.9-1.6-3.3-3.3-3.3c-1.9,0-3.3,1.5-3.4,3.3C6.7,11.5,8.2,13,10.1,13.1"></path> <path class="st2" d="M16.7,4.4c0,0.6-0.5,1.2-1.1,1.2s-1.2-0.5-1.2-1.2c0-0.6,0.6-1.2,1.2-1.2C16.1,3.2,16.7,3.7,16.7,4.4"></path> </g> </g> </svg> 