<svg xmlns="http://www.w3.org/2000/svg" viewBox="0 0 18.93 38"><g data-name="Layer 2"><path d="M16.68 38H2.38a.55.55 0 010-.17l-1-9.18-1-8.84C.2 19.2.13 18.59.06 17.94h8.3v-2.36h-.38c-.92 0-1.85.12-2.77.11a3.36 3.36 0 01-3-1.54 13.55 13.55 0 01-1-1.75C.81 11.34.43 10.22 0 9.07l.7-.13a17.83 17.83 0 014.49-.33A3.39 3.39 0 018 10.09c.11.16.22.31.36.53V7l-.68.06c-.77 0-1.53.09-2.29.09a3.55 3.55 0 01-3.46-2C1.42 4.1 1 3 .53 2 .33 1.51.22 1 .05.49A18 18 0 015.54.08 3.09 3.09 0 017.72 1.2 11.17 11.17 0 019.27 4l.22.52c.1-.24.16-.39.23-.53.37-.75.71-1.51 1.13-2.24a3.37 3.37 0 012.82-1.7 18.57 18.57 0 013.87.19c.45.06.91.17 1.38.25-.09.33-.17.6-.25.87a17.67 17.67 0 01-1.77 4.06 3.19 3.19 0 01-2.45 1.66c-.8.07-1.6.07-2.4.06A13.83 13.83 0 0110.63 7v3.6c.12-.18.2-.28.27-.4a3.27 3.27 0 012.84-1.6c1.07 0 2.14 0 3.21.12.66 0 1.31.2 2 .3a18.88 18.88 0 01-2.09 5 3.07 3.07 0 01-2.28 1.54c-.9.09-1.82.07-2.73.07-.4 0-.8-.07-1.2-.11V18h8.3c-.1.88-.19 1.72-.29 2.55-.28 2.48-.57 5-.85 7.44s-.58 5-.86 7.48c-.09.86-.17 1.72-.25 2.58" fill="#fff" data-name="Layer 1"/></g></svg>