<svg xmlns="http://www.w3.org/2000/svg" viewBox="0 0 20.26 19.37"><g data-name="Layer 2"><g data-name="Layer 1" fill="#fff"><path d="M.26 19.35h4.45V6H.52c-.26 0-.26 0-.26.26v13.09z"/><path d="M20.26 19.37h-4.35v-6.9a4.87 4.87 0 00-.24-1.69 2 2 0 00-2.05-1.34 2.41 2.41 0 00-2.25 2.19v7.73H7V6.3h4.34v1.78c.26-.3.48-.59.73-.85A3.93 3.93 0 0114.53 6a5.51 5.51 0 012.58.25 4.29 4.29 0 012.36 2 6.42 6.42 0 01.75 2.75v.19zM0 1.92A5.17 5.17 0 01.42 1a2.36 2.36 0 012.29-1 2.21 2.21 0 011.82 1 2.25 2.25 0 01-1.7 3.46 2.77 2.77 0 01-1.72-.3A2.14 2.14 0 010 2.72V2.6zm.25 17.43V6.54c0-.25 0-.25.26-.25h4.08v13.06z" fill-rule="evenodd"/></g></g></svg>