<svg xmlns="http://www.w3.org/2000/svg" viewBox="0 0 77.68 53.96"><defs><style>.cls-1{fill:#fff}</style></defs><g id="Layer_2" data-name="Layer 2"><g id="Layer_1-2" data-name="Layer 1"><path class="cls-1" d="M33.41 25.66a1.91 1.91 0 01-.47-.11c-.2-.09-.54-.24-.53-.33 0-.33-.09-.81.47-.88.35 0 .7-.07 1-.14a3.77 3.77 0 00.64-.23v-.18l-.88-.3 1.17-.49a.29.29 0 000-.09l-1 .16.29-.74-1.72.92c0-.83.68-.69 1.08-.95l-.1-.27c.91-.84 1.4.28 2.06.52a.88.88 0 00.67 0c.42-.15.83-.35 1.17-.5l.34-.53a3.34 3.34 0 003.78-.27l-.81-.59.65-.27-.05-.14-1.49.51c.22.1.37.17.51.25v.22c-.45.19-.94.6-1.34.52a6.41 6.41 0 00-2.18-.28c-.09 0-.25-.2-.29-.33s.1-.26.21-.31a23.39 23.39 0 012.4-1.07 6.44 6.44 0 012-.29 11.08 11.08 0 014.71.87c.19.08.47 0 .73-.05l1.12.09c.66.06 1.32.12 2 .2a15.19 15.19 0 002 .18c.28-.06.63-.26.81-.16a7.87 7.87 0 003.34.71 15 15 0 011.69.43 1.78 1.78 0 00.77.09l-.53-.24.06-.15c.21.1.43.19.63.3.61.35 1.23.7 1.82 1.07s.83.6 1.26.88c.77.49 1.55 1 2.31 1.46.58.38 1.15.79 1.7 1.21a4.7 4.7 0 002.06 1.16.55.55 0 01.28.12q2.23 2.2 4.46 4.42a17.5 17.5 0 012.06 2.07c1.23 1.68 2.34 3.44 3.48 5.18a.67.67 0 010 .61c-.38-.64-.76-1.28-1.13-1.92l-.15.08c0 .17.09.34.13.51l-.11.1-2-1.85c0 .72.83 1.39-.27 2-.27-.83-.55-1.6-.74-2.39 0-.12.36-.34.54-.5a6.57 6.57 0 00-.56-.68 3.9 3.9 0 00-.63-.38 2.2 2.2 0 01-.51-.32c-.43-.42-.8-.91-1.25-1.3a2.13 2.13 0 00-1.21-.27c.84 1.05 1.8 2 1.82 3.46l-.44-.71c-.57.6-.8.61-1.52.12a3.27 3.27 0 00-.74-.23c.09.35.14.54.18.73s.06.39.11.66c-.58-.19-.87-.39-.93-1s-.13-1.19-.93-1.41l.29.49h-.53c.07.28.13.49.2.71.26.83 0 1.22-.91 1.08a8.56 8.56 0 01-1.31-.53c-.29-.12-.54-.54-.94-.15 0 0-.27-.1-.52-.2l.61-.32-1-.38a6.09 6.09 0 01.32.93 1.62 1.62 0 010 .82c0 .08-.44 0-.67 0a.86.86 0 01-.91-.75 3.84 3.84 0 00-.43-.89c-.55.26-.58.6-.23 1.19a2.19 2.19 0 01.17 1c0 .09-.19.19-.28.28-.05.33-.24.75-.12 1.06a4 4 0 00.81 1 3.37 3.37 0 01.47.65c-1.82-1-2-2.93-2.56-4.86.25.3.43.48.56.67s.25.46.38.69h.15c0-.33-.08-.66-.08-1a1.15 1.15 0 01.1-.55c.38-.72.26-1.1-.47-1.39 0-1-.39-1.72-1.35-1.85-.77-.11-1.69-.3-2.35.52a1.15 1.15 0 01-.84.22c-.12 0-.27-.3-.34-.49-.23-.68-.43-1.36-.65-2.08A11.56 11.56 0 0053.24 29a7.16 7.16 0 00-2.24-.7l.82.65c-1.42 1-3 .52-4.52.75v.19l2 .27a3.69 3.69 0 01-1.65 1.21c-.48.17-.94.43-1.42.6s-.61.68-.49 1.17c.22.84.1 1-.7 1.23-.44.1-.94.17-.87.83 0 0 0 .11-.08.15-.43.36-.85.71-1.29 1a3.68 3.68 0 01-2.34.46c-.5-.9-1-1.75-1.43-2.62a1.1 1.1 0 010-.8 1.2 1.2 0 00-.35-1.59c-.37-.28-.79-.48-.5-1.07 0-.05-.22-.31-.37-.35a8.6 8.6 0 00-1.13-.19 1.3 1.3 0 00-.44 0 14.18 14.18 0 00-2 .52 2.88 2.88 0 01-2.24-.17 2.85 2.85 0 00-.46-.17c-.57-.1-.81-.39-.63-1a.51.51 0 000-.24c-.07-.23-.3-.55-.22-.68a10.18 10.18 0 011-1.2 8.6 8.6 0 01.76-.83c.21-.18.49-.28.72-.44a2.1 2.1 0 00.29-.35m6-1.11v-.11c-.42-.13-.85-.23-1.26-.4a2.31 2.31 0 00-2.15.27c-.68.38-1.3.86-1.9 1.26l.56-.14c1-.19 1.91-.39 2.87-.57.47-.08.89 0 .86.52.55.14 1 .27 1.51.36.26.05.61.13.77 0a1.35 1.35 0 011.17-.16c.92.11 1.85.17 2.78.24.43 0 .6-.17.48-.61a8.63 8.63 0 01-1.71-.16A6.65 6.65 0 0142 24.2c.05.67-.23.88-.72.64-.2-.1-.37-.27-.56-.39l-1.4-.86-.12.22 1.2.43c-.56.34-1 .93-1.74.47l.77-.19m3.53-.44l3.65.39c-.68 0-.87-1.3-1.82-.73-.07 0-.24 0-.34-.09-.72-.39-.84-.37-1.49.43m1.84 2.53c1.4 2.21 1.61 2.45 2.31 2.62a5.62 5.62 0 00-2.31-2.62m5.29-.61c0-.07.07-.14.11-.2l-1-1.29.49-.27h-1.27l.85 1.24-.16.16 1 .36M49 27c.88 1.11 1 1.47 1.66 1L49 27m-29.59-3.69l-1.87 1.42a.77.77 0 000 .15l2.46-.11.07.11-1.22.72.23.11c-.58 1.16-2 .79-2.82 1.47l1.38-1.29a2 2 0 00-1.67.92 4.11 4.11 0 00-.47.65c-.85 1.5-2.78 2-3.33 3.71a3.26 3.26 0 001.94-.68l.53.43c.08-.26.15-.45.21-.63s0-.31.09-.35c.71-.44.61-1.24.89-1.88a1.67 1.67 0 011.85-.72.68.68 0 00.44-.16c.24-.16.45-.36.66-.53l1.52.43v.43l.68.12v.2l-1.62.69c.22-.37.38-.61.56-.9L17.83 29c.07.12.15.26.26.47L19 29l.09.13c-.58.4-1.18.75-1.72 1.2-.36.3-.58.76-.92 1.1a8.42 8.42 0 00-1.58 3 6 6 0 01-.42.69.5.5 0 00.17.79c.12.07.1.35.13.54a1.74 1.74 0 01-.5.08c-.2 0-.48-.23-.58-.16a8.56 8.56 0 00-1.11 1c-.21.21-.33.51-.55.7a1.78 1.78 0 00-.62 2.09c.17.53.68.67 1 .25A5.93 5.93 0 0013 39.3c.16-.31.31-.62.47-.94l.14.07c.08.29.15.58.24.91l1-.82c.5.91.69.9 1.33.23a5 5 0 00.87-1.22c.33-.67 1.12-.83 1.67-1.24a4.13 4.13 0 012.55-.86 1.47 1.47 0 00.56-.25 1.54 1.54 0 011.54-.06 1.37 1.37 0 00.83.05c1-.17 1.9-.41 2.85-.57.55-.09.74.23.46.72a1.42 1.42 0 00-.14 1.33 1 1 0 01-.44 1.35c-.33.19-.76.5-.41 1.11.21.35-.28 1.42-.46 1.56 0 .38 0 .68-.09.79-.34.3-.42.55-.13.93.09.13.05.35.07.56h.43c0 .76.48.75 1 .69a2.12 2.12 0 01-2.77.07c-.17-.2-.49-.27-.67-.46-.66-.67-1.34-1.32-1.93-2s-.76-.74-1.59-.49a5.34 5.34 0 01-1.45.1c-.27 0-.54-.07-.81-.07-.88 0-1.21-.45-1-1.34a.59.59 0 00-.58-.83c-.1 0-.27.07-.3.15-.27.77-1 .77-1.58.9a2.78 2.78 0 00-.68.25 11.23 11.23 0 00-2.57 2 7.21 7.21 0 01-1.16.75c-.75-.69-1.24.23-1.89.33l.79.21a2.29 2.29 0 01-1.79.37 1.27 1.27 0 00-.65.08c-.71.36-1.26.08-1.3-.73v-1.54l-.19.09a3.65 3.65 0 01-.51-.45.92.92 0 00-1.48.06A22.07 22.07 0 002 43.43c-.27.56-.44 1.17-.66 1.77L.74 47c0-.16-.05-.27-.08-.39l-.57.54L0 47c.31-1.16 0-2.45.77-3.51.13-.2.43-.39 0-.65 0 0 .07-.26.12-.39a18.25 18.25 0 014.33-6.35c.6-.59 1-1.38 1.58-2S8 33 8.61 32.41a4.57 4.57 0 00.51-.71L9 31.58l-.87.91a4 4 0 011.54-2c.74-.49 1.45-1 2.11-1.49l.29.44 1.15-1.05-.85.08 1.57-1.31-1 .51a1.24 1.24 0 00-.1-.2l2.1-1-.26-.05v-.55l1-.09v-.17l-.46-.17a39 39 0 0117.08-6.5 7.3 7.3 0 00-1.13.53c-.44.31-.79.73-1.26 1.05A6.66 6.66 0 0128 21.54a9.16 9.16 0 00-3.58 2.05 1.86 1.86 0 01-1.45.8 1.74 1.74 0 01-.83-.24c-.08-.06 0-.4 0-.61s0-.52-.06-.79c-.95-.34-1.63.92-2.74.56M8.7 26.4a20.07 20.07 0 01-5.18-6.51 5.87 5.87 0 1110.86-1.47 9.13 9.13 0 01-.66 1.81 20.79 20.79 0 01-5 6.17m3.12-9.34a3.12 3.12 0 10-3.1 3.14 3.14 3.14 0 003.08-3.14m57.1 9.3a18.93 18.93 0 01-5.38-7.08A5.77 5.77 0 0165 12.8a5.65 5.65 0 016.34-1.09 5.8 5.8 0 013.24 7.11 10.68 10.68 0 01-.66 1.61 20 20 0 01-5 5.93m-3.07-9.3A3.12 3.12 0 1069 14a3.15 3.15 0 00-3.16 3.1m-27.06-1.95c-2.32-2.17-4.52-4.4-5.5-7.49a5.83 5.83 0 1111.21-.45 14 14 0 01-1.56 3.38 18.79 18.79 0 01-4.15 4.56M42 5.86A3.12 3.12 0 1038.86 9 3.14 3.14 0 0042 5.86m24.74 40.29c-.3.92-.62 1.72-.82 2.55-.15.6-.51.8-1 .63a15.49 15.49 0 01-2.52-1.13 1.3 1.3 0 01-.68-1.54c.22-.91-.36-1.65-1.38-2.17-.61-.31-1.17-.73-1.72-1.07a9.51 9.51 0 00.84-.92c.34-.48.79-.71 1.27-.37a11.2 11.2 0 002.45 1 4.37 4.37 0 01.8.52.85.85 0 00.25.17c.91.34.91.34 1.46 1.39-.43 0-.56.22-.41.65s.39.47.77.37a4.29 4.29 0 01.69-.06m-.29-3.4c.1.33.2.66.32 1a1 1 0 00.24.38A4.4 4.4 0 0168.28 47a3.91 3.91 0 01-.33 1.2c0-1.29-1-2-1.47-3.06.49 0 .38-.31.23-.6a2.06 2.06 0 01-.26-1.76"/><path class="cls-1" d="M62.2 38.55c.76.22 1.32.45 1.9.55a.89.89 0 01.77.72c-.46.15-.9.27-1.32.44-.77.29-.82-.52-1.21-.8-.17-.12-.1-.59-.14-.91m7-.68a4.92 4.92 0 01-.09-.51l2 1.1c.12-.49.23-1 .37-1.5.32.56.57 1 .82 1.47l-.06.08-.62-.51-.18 1.41-2.24-1.54M47.93 34c0 .17 0 .39-.07.5a8.31 8.31 0 01-1 1.23c-.15.13-.48 0-.73.06a5.08 5.08 0 010-.68c.18-.93 1.14-.74 1.82-1.11M37.83 18.42l3-.17v.28l-3 .16v-.27m10.76 1.66l.38.15-.09.11-1.2-.34c.69-.59 1.68-.39 3-.07-.34 0-.69-.08-1-.08s-.68.05-1 .08l-.08.18M31.5 21a2.42 2.42 0 01-2.42.58L31.5 21m32.85 20.85l-.62-.8a1.79 1.79 0 01.61-.4c.18 0 .42.15.64.24l-.07.14-.45-.29-.12.13.49.28c-.2.29-.33.47-.48.7M9.7 30c.56-.46.91-1.21 1.85-1.13l-1.73 1.27L9.7 30m55.74 10.11h.9c-.07.32.65.66 0 .88-.16 0-.53-.5-.91-.88m-.75 12.81l-1.81-1.53c.06-.07.12-.13.17-.2l1.78 1.57-.14.16m1.68-14.68c.52.34.19.57 0 .76l.41 1c-.72-.53-.86-1.4-.36-1.78m-49.98-1.94l-1.88.94a1.09 1.09 0 01-.08-.15l1.82-1a2 2 0 00.14.25m48.31 16.77l1.4.22-.39.65-1-.87"/></g></g></svg>