<svg xmlns="http://www.w3.org/2000/svg" viewBox="0 0 35.8 40.75"><defs><style>.cls-1{fill:#253651}</style></defs><g id="Layer_2" data-name="Layer 2"><g id="Layer_1-2" data-name="Layer 1"><path class="cls-1" d="M16.07 40.75l-1.78-.15A34.21 34.21 0 016 39a12.64 12.64 0 01-4.21-2.19 4.41 4.41 0 01-1.72-2.56A3.55 3.55 0 011 31.1a9.67 9.67 0 014.08-2.59c1-.38 2.07-.65 3.1-1a.4.4 0 01.54.21c1.9 3 3.81 5.94 5.7 8.91a3.91 3.91 0 003.17 2A3.68 3.68 0 0021.06 37c1-1.41 1.87-2.89 2.8-4.34q1.59-2.47 3.17-4.95a.4.4 0 01.54-.22 19.8 19.8 0 015.21 2A6.55 6.55 0 0135.37 32a8.64 8.64 0 01.43 1.14v1a4.93 4.93 0 01-1.92 2.87A13.48 13.48 0 0129.83 39a34.2 34.2 0 01-8.33 1.6l-1.77.15z"/><path class="cls-1" d="M17.93 0a13.12 13.12 0 0112.49 9.23 12.69 12.69 0 01-1.48 11c-3.25 5.12-6.55 10.22-9.83 15.32l-.08.14a1.22 1.22 0 01-2.25 0l-2.45-3.81C11.82 28 9.3 24 6.81 20.11A12.48 12.48 0 015 10.93 12.89 12.89 0 0112.78 1a13.34 13.34 0 015.15-1m5.94 13.12a6 6 0 10-6 6 6 6 0 006-6"/></g></g></svg>