<svg xmlns="http://www.w3.org/2000/svg" viewBox="0 0 490.3 262.95"><defs><clipPath id="a"><path fill="none" d="M0 0h490.3v262.95H0z"/></clipPath></defs><g data-name="Layer 2"><g clip-path="url(#a)" opacity=".03" data-name="Layer 1"><path d="M363.32 174l49.19-163.79-94.75 131.1L245.15 0l-72.61 141.31-94.76-131.1L127 174 0 94l102.1 169h286.1L490.3 94zm7.54-79.5l-29.26 93.23-15.83-30.81zm-251.43 0l45.09 62.38-15.82 30.8zm-8.51 152.77l-63.35-104.8 86.25 54.36L149 247.3zm58.88 0h-4.49l-11.15-37.1 60.77 37.09zm-7.8-51.18l12.82-25 41.68 57.67zm83.17 45.67l-62.33-86.23 62.31-121.31 62.33 121.31zm70.35-70.62l12.82 25-54.51 32.7zm9.48 76.15h-49.64l60.77-37.09zm54.38 0h-38.06l15.15-50.46 86.26-54.37z" fill="#253651"/></g></g></svg>