<svg xmlns="http://www.w3.org/2000/svg" viewBox="0 0 24 24"><g data-name="Layer 2"><g data-name="Layer 1"><path d="M0 12.7v-1.66c.06-.43.09-.87.18-1.29a11.54 11.54 0 013.65-6.53 11.74 11.74 0 0110.42-3 11.33 11.33 0 016.59 3.67 11.73 11.73 0 013.05 9.72 11.73 11.73 0 01-3.79 7.24 11.63 11.63 0 01-6.05 3c-.45.08-.9.13-1.34.19h-1.64c-.44-.06-.88-.1-1.32-.18a11.8 11.8 0 01-6.64-3.73A11.66 11.66 0 01.18 14c-.07-.45-.12-.9-.18-1.34" fill="#253651"/><path d="M5.52 12a6.4 6.4 0 016.76-6.64c3.83 0 6.19 2.56 6.19 5.85 0 2.42-1.27 3.91-2.94 3.91A1.82 1.82 0 0113.69 14a2.11 2.11 0 01-2 1.12 2.77 2.77 0 01-2.67-3 2.84 2.84 0 012.67-3 1.9 1.9 0 011.69.89v-.83h1.51v3.57c0 .73.23.93.61.93.69 0 1.29-.82 1.29-2.52C16.82 8.74 15 7 12.26 7a4.76 4.76 0 00-5 5 4.74 4.74 0 005 5 7.1 7.1 0 003.74-.94l-.58 2a7.73 7.73 0 01-3.21.59A6.36 6.36 0 015.52 12m7.87 1v-1.76a1.55 1.55 0 00-1.39-.76 1.46 1.46 0 00-1.41 1.61A1.41 1.41 0 0012 13.68a1.69 1.69 0 001.37-.7" fill="#fff"/></g></g></svg>