<svg xmlns="http://www.w3.org/2000/svg" viewBox="0 0 24 23.98"><g data-name="Layer 2"><g data-name="Layer 1"><path d="M12.72 24h-1.41c-.45-.06-.9-.11-1.34-.19A11.5 11.5 0 012.29 19 11.64 11.64 0 01.83 7.68 12 12 0 0111.51 0a11.73 11.73 0 017 1.94 11.83 11.83 0 015.26 8c.08.44.12.89.18 1.34v1.4c0 .31-.07.62-.11.92a11.9 11.9 0 01-3.76 7.19 11.55 11.55 0 01-6.07 3c-.45.08-.9.13-1.34.19" fill="#253651"/><path d="M12 18.34l-.07-.11a19.23 19.23 0 01-3.23-4.74 9 9 0 01-.85-2.92 4.38 4.38 0 01.57-2.92 4.07 4.07 0 013.79-2A4.14 4.14 0 0116.09 9a5.79 5.79 0 01-.09 2.35 11.75 11.75 0 01-1.4 3.42 20.59 20.59 0 01-2.52 3.43l-.13.14M12 7.23a2.56 2.56 0 102.56 2.58A2.56 2.56 0 0012 7.23" fill="#fff"/></g></g></svg>