<svg xmlns="http://www.w3.org/2000/svg" viewBox="0 0 31.32 38"><g data-name="Layer 2"><path d="M16 38h-.6a36.76 36.76 0 01-3.5-1.74C4.41 31.59.69 24.72.08 16.07-.06 14 0 12 0 10a1.45 1.45 0 01.8-1.36q7-4.14 14-8.31a1.55 1.55 0 011.79 0q6.86 4.1 13.74 8.17a1.89 1.89 0 011 1.24v5.2a3.15 3.15 0 00-.05.43A25.88 25.88 0 0129 25.47a23.5 23.5 0 01-10.22 11.18c-.91.51-1.88.9-2.83 1.35M13.1 21.37c-.06 0-.09 0-.1-.06l-1.74-1.73a1.27 1.27 0 00-1.88-.07 1.29 1.29 0 00.08 1.85c.88.89 1.77 1.77 2.65 2.65A1.26 1.26 0 0014 24l7.82-7.83A1.27 1.27 0 1020 14.43l-1.75 1.75-5.15 5.19" fill="#253651" data-name="Layer 1"/></g></svg>