<svg xmlns="http://www.w3.org/2000/svg" viewBox="0 0 50.7 50.71"><g data-name="Layer 2"><g data-name="Layer 1"><path d="M26.93 50.71h-3.17c-.74-.1-1.5-.18-2.24-.3a24.27 24.27 0 01-14.19-7.25A24.72 24.72 0 01.61 19.9 25.31 25.31 0 0124.74 0a24.9 24.9 0 0114.38 4.07A24.92 24.92 0 0150.31 21c.17.93.26 1.86.39 2.79v3.17a3.29 3.29 0 00-.09.43A24.74 24.74 0 0144.48 42a24.76 24.76 0 01-14.76 8.34c-.93.16-1.86.26-2.79.39m1.62-31.57a4.64 4.64 0 00.36.31 5.7 5.7 0 006.15 1 5.64 5.64 0 003.63-5.07 5.6 5.6 0 00-3.1-5.6 5.55 5.55 0 00-6.29.42 5.7 5.7 0 00-2.33 6 .47.47 0 01-.28.61c-2.39 1.39-4.78 2.78-7.17 4.19a.47.47 0 01-.67-.09 5.68 5.68 0 00-3.44-1.46 5.94 5.94 0 00-3.78 10.84 5.87 5.87 0 007.23-.47.48.48 0 01.68-.06l7.13 4.16a.5.5 0 01.3.65 5.93 5.93 0 108.7-4 5.86 5.86 0 00-6.81.74.44.44 0 01-.63.07L21 27.15c-.22-.13-.25-.25-.24-.51a21.69 21.69 0 000-2.55c0-.27 0-.4.25-.54 1.18-.68 2.36-1.38 3.54-2.07q2-1.15 4-2.34" fill="#253651"/><path d="M28.55 19.14q-2 1.18-4 2.34c-1.18.69-2.36 1.39-3.54 2.07-.25.14-.26.27-.25.54a21.69 21.69 0 010 2.55c0 .26 0 .38.24.51l7.26 4.23a.44.44 0 00.63-.07 5.86 5.86 0 016.81-.74 5.93 5.93 0 11-8.7 4 .5.5 0 00-.3-.65l-7.13-4.16a.48.48 0 00-.68.06 5.87 5.87 0 01-7.23.47 5.94 5.94 0 013.78-10.84 5.68 5.68 0 013.44 1.46.47.47 0 00.67.09c2.39-1.41 4.78-2.8 7.17-4.19a.47.47 0 00.28-.61 5.7 5.7 0 012.33-6 5.55 5.55 0 016.29-.42 5.6 5.6 0 013.1 5.6 5.64 5.64 0 01-3.63 5.07 5.7 5.7 0 01-6.15-1 4.64 4.64 0 01-.36-.31" fill="#fff"/></g></g></svg>