<svg xmlns="http://www.w3.org/2000/svg" viewBox="0 0 42.07 42.07"><g data-name="Layer 2"><g data-name="Layer 1"><path d="M42.07 21A21 21 0 1121 0a21 21 0 0121 21" fill="#253651"/><path d="M23.9 4.93a.92.92 0 01-.13.19c-.31.31-.62.63-.94.92a.46.46 0 00-.16.47c.08.43.16.86.22 1.3a.49.49 0 01-.09.31c-.08.12-.21.08-.33 0-.38-.2-.77-.4-1.14-.61a.52.52 0 00-.56 0c-.38.21-.77.42-1.16.61a.37.37 0 01-.31 0 .32.32 0 01-.1-.28c.06-.44.14-.87.22-1.3a.5.5 0 00-.16-.54c-.31-.27-.6-.57-.89-.85-.1-.1-.24-.22-.14-.36a.53.53 0 01.33-.21c.42-.08.85-.13 1.28-.18a.41.41 0 00.34-.25c.19-.41.39-.82.6-1.22a.39.39 0 01.27-.19.4.4 0 01.26.19c.22.41.42.82.62 1.24a.36.36 0 00.32.23l1.38.2c.16 0 .24.1.27.3M11.4 10c.08-.45.15-.9.24-1.34a.5.5 0 00-.16-.51c-.32-.28-.62-.58-.91-.89a.4.4 0 01-.12-.33.42.42 0 01.28-.19c.44-.08.88-.15 1.32-.2a.43.43 0 00.36-.26c.19-.4.38-.81.59-1.2.05-.09.17-.2.26-.19a.43.43 0 01.28.2c.21.39.4.79.59 1.2a.39.39 0 00.34.25c.45.06.91.12 1.36.2a.37.37 0 01.25.2.33.33 0 01-.08.26c-.29.31-.59.6-.9.88a.57.57 0 00-.2.58c.09.41.16.83.21 1.25a.37.37 0 01-.08.3.42.42 0 01-.33 0c-.4-.19-.8-.4-1.18-.62a.44.44 0 00-.48 0c-.39.21-.78.42-1.18.62-.25.13-.46 0-.45-.25m21.25 5.76c.09-.53.16-1 .25-1.46a.4.4 0 00-.14-.41c-.32-.29-.62-.58-.91-.89a.51.51 0 01-.15-.36c0-.17.18-.18.32-.2.43-.06.85-.14 1.28-.19a.43.43 0 00.36-.26c.19-.4.38-.8.59-1.19.05-.1.17-.21.25-.2a.39.39 0 01.28.19c.22.4.42.82.62 1.23a.34.34 0 00.3.22c.46.06.91.13 1.37.21.1 0 .24.1.26.19a.39.39 0 01-.1.31c-.29.31-.59.6-.91.89a.49.49 0 00-.17.52c.09.42.16.85.21 1.28a.39.39 0 01-.12.32.35.35 0 01-.3 0c-.4-.2-.78-.4-1.16-.62a.49.49 0 00-.52 0c-.38.22-.77.43-1.16.62a.42.42 0 01-.31 0c-.08 0-.12-.16-.14-.2m.01 15.51c.08-.48.15-.95.24-1.42a.38.38 0 00-.12-.38c-.33-.31-.65-.62-1-.94a.56.56 0 01-.13-.32c0-.15.16-.19.3-.21l1.35-.2a.36.36 0 00.31-.24c.19-.4.39-.79.58-1.18.06-.13.14-.28.29-.23a.47.47 0 01.28.24c.21.39.39.8.6 1.19a.49.49 0 00.28.21c.45.09.91.13 1.36.22a.51.51 0 01.3.19c.07.13 0 .24-.13.35l-.93.89a.43.43 0 00-.14.44c.08.43.16.87.22 1.31a.42.42 0 01-.11.33.35.35 0 01-.33 0c-.41-.19-.81-.41-1.2-.63a.4.4 0 00-.42 0c-.4.22-.81.43-1.22.64-.24.12-.44 0-.42-.26m-21.23 5.7c.08-.45.15-.91.24-1.36a.47.47 0 00-.16-.49c-.31-.27-.6-.57-.9-.86-.1-.11-.22-.23-.13-.37a.52.52 0 01.32-.19c.42-.08.85-.14 1.28-.19a.41.41 0 00.36-.28c.19-.39.38-.79.59-1.17a.42.42 0 01.27-.21.39.39 0 01.26.2c.21.4.41.81.6 1.22a.4.4 0 00.35.24l1.28.19c.14 0 .31 0 .32.2a.54.54 0 01-.14.36c-.31.32-.65.62-.95.94a.46.46 0 00-.1.34c.06.46.15.91.21 1.36a.4.4 0 01-.1.31.4.4 0 01-.32 0q-.62-.3-1.2-.63a.43.43 0 00-.44 0q-.6.33-1.2.63c-.24.13-.45 0-.44-.25m23.36-13.5c.07-.44.14-.91.23-1.37a.41.41 0 00-.14-.42c-.31-.3-.63-.6-.94-.92a.49.49 0 01-.12-.32c0-.17.16-.19.3-.21.45-.06.91-.12 1.36-.21a.41.41 0 00.26-.2c.22-.39.4-.8.6-1.19.07-.13.13-.26.3-.26s.23.12.29.24c.2.4.4.8.59 1.2a.36.36 0 00.3.22c.46.06.91.13 1.37.21a.41.41 0 01.27.18.37.37 0 01-.1.31c-.31.33-.64.65-1 1a.39.39 0 00-.14.39c.08.43.15.86.23 1.3 0 .14.06.31-.1.37a.53.53 0 01-.37 0c-.4-.19-.79-.41-1.18-.62a.38.38 0 00-.4 0l-1.22.65c-.24.12-.43 0-.42-.29M5.7 31.26c.09-.49.16-1 .24-1.4a.45.45 0 00-.15-.47c-.32-.3-.64-.6-.94-.92a.37.37 0 01-.1-.31A.39.39 0 015 28c.45-.08.92-.13 1.38-.22a.45.45 0 00.28-.21c.21-.39.39-.8.6-1.19a.5.5 0 01.28-.24c.17-.05.24.12.3.24l.57 1.17a.41.41 0 00.33.25c.45.05.9.12 1.35.2a.45.45 0 01.28.2.4.4 0 01-.11.31c-.31.32-.63.63-.95.93a.41.41 0 00-.15.41c.09.45.17.89.23 1.34 0 .11 0 .27-.09.31a.39.39 0 01-.35 0c-.41-.19-.8-.4-1.19-.62a.39.39 0 00-.43 0c-.4.22-.81.44-1.22.64-.24.12-.44 0-.43-.23m21.55-22.9a2 2 0 00-.16-.24l-.91-.89c-.11-.1-.21-.19-.16-.36s.19-.19.33-.21l1.3-.19a.37.37 0 00.37-.23c.19-.4.38-.8.59-1.19a.41.41 0 01.29-.22c.09 0 .21.12.27.22.2.38.39.76.57 1.15a.42.42 0 00.37.28c.45.06.89.12 1.34.2a.41.41 0 01.26.2.37.37 0 01-.1.29c-.3.32-.61.63-.94.93a.47.47 0 00-.16.48c.08.43.16.85.22 1.28a.35.35 0 01-.09.31.37.37 0 01-.34 0c-.41-.2-.8-.41-1.2-.63a.4.4 0 00-.42 0l-1.2.63a.38.38 0 01-.33 0 .43.43 0 01-.13-.31c.06-.49.15-1 .23-1.5M5.49 23a.7.7 0 00-.2.08c-.4.2-.78.42-1.18.62a.53.53 0 01-.37 0c-.15-.07-.12-.23-.09-.38.08-.44.16-.89.22-1.33a.46.46 0 00-.13-.33c-.3-.32-.62-.62-.94-.92-.1-.1-.23-.22-.14-.36a.48.48 0 01.34-.19c.44-.09.89-.14 1.33-.22a.41.41 0 00.27-.19c.23-.42.43-.85.65-1.27s.37-.28.51 0 .42.82.62 1.23a.34.34 0 00.31.23l1.32.2c.14 0 .27 0 .32.2a.3.3 0 01-.13.34l-1 .93a.38.38 0 00-.1.36c.08.42.15.85.22 1.28 0 .14 0 .3-.1.4s-.28 0-.41-.06l-1.14-.6-.18-.02m3.63-7L9 15.92l-1.19-.62a.42.42 0 00-.47 0l-1.19.62a.4.4 0 01-.32 0 .49.49 0 01-.11-.33c.06-.46.15-.91.24-1.36a.42.42 0 00-.14-.38l-1-.91c-.1-.1-.2-.22-.12-.35a.44.44 0 01.3-.18l1.35-.21a.36.36 0 00.3-.22c.19-.41.39-.83.61-1.23a.42.42 0 01.26-.2.36.36 0 01.26.19c.22.4.41.8.61 1.21a.4.4 0 00.35.26c.46 0 .91.12 1.36.21a.36.36 0 01.25.18.33.33 0 01-.08.28c-.32.33-.66.66-1 1a.38.38 0 00-.13.37c.09.47.16.94.24 1.4a.28.28 0 01-.3.35m19.75 20.45c-.1 0-.19.08-.27.13-.39.2-.76.4-1.15.59a.37.37 0 01-.31 0 .4.4 0 01-.11-.3c.05-.43.13-.86.21-1.28a.53.53 0 00-.18-.55 12.25 12.25 0 01-.9-.87.39.39 0 01-.1-.32c0-.09.16-.17.26-.19.42-.08.84-.13 1.26-.19a.49.49 0 00.45-.31c.17-.39.36-.77.56-1.14.06-.1.18-.22.28-.22s.21.12.27.21c.2.37.39.76.56 1.14a.53.53 0 00.47.33c.42 0 .84.11 1.26.18.1 0 .23.1.25.18a.39.39 0 01-.09.32c-.3.32-.62.62-.94.92a.44.44 0 00-.16.47c.08.41.14.83.22 1.25 0 .14 0 .26-.09.37s-.26 0-.39 0c-.38-.21-.77-.41-1.16-.61l-.2-.09m-4.93-.41a1.72 1.72 0 01-.15.21c-.3.3-.6.6-.91.89a.48.48 0 00-.17.5c.08.43.16.85.22 1.28a.4.4 0 01-.09.31.42.42 0 01-.33 0c-.4-.19-.79-.4-1.18-.62a.46.46 0 00-.48 0c-.38.22-.77.42-1.16.61a.39.39 0 01-.35 0 .4.4 0 01-.09-.33c.06-.43.14-.86.22-1.29a.45.45 0 00-.14-.44c-.33-.3-.64-.6-.95-.92a.43.43 0 01-.11-.33.41.41 0 01.29-.19c.42-.08.85-.13 1.28-.18a.48.48 0 00.39-.28c.19-.4.37-.8.58-1.18a.41.41 0 01.28-.22c.09 0 .22.12.27.22.21.4.39.81.61 1.21a.58.58 0 00.32.23c.44.08.88.13 1.32.19a.34.34 0 01.33.32" fill="#fff"/></g></g></svg>