<svg xmlns="http://www.w3.org/2000/svg" viewBox="0 0 25.01 25"><defs><style>.cls-1{fill:#fff}</style></defs><g id="Layer_2" data-name="Layer 2"><g id="Layer_1-2" data-name="Layer 1"><path class="cls-1" d="M22.51 25H4.14A2.87 2.87 0 012 23.16a6.68 6.68 0 01-.19-2.32h2.56A1.83 1.83 0 006.25 19v-2.5a1.81 1.81 0 00-1.91-1.91h-2.5v-4.18h2.48a1.81 1.81 0 001.93-1.92V6.12a1.84 1.84 0 00-2-2H1.82V2.76A2.87 2.87 0 014.71 0h17.41A2.85 2.85 0 0125 2.86v19.29a2.85 2.85 0 01-2.16 2.76l-.33.09m-1.67-12.5a6.25 6.25 0 10-6.26 6.25 6.25 6.25 0 006.26-6.25"/><path class="cls-1" d="M0 5.81a.9.9 0 011-.6h3.34a.8.8 0 01.9.9v2.35a.81.81 0 01-.91.92H1.04a1 1 0 01-1-.59zm0 10.4a1 1 0 011-.59h3.31a.8.8 0 01.89.89v2.39a.78.78 0 01-.87.88H.96a.9.9 0 01-1-.6zm15.24-6.78l1.08.42.95-.95a1 1 0 01.43-.25.6.6 0 01.68.32.61.61 0 01-.11.76c-.3.31-.6.62-.91.92-.12.1-.12.18-.05.33s.24.56.37.87h1.46a.61.61 0 01.64.57.62.62 0 01-.62.71h-1.3c-.17 0-.23.06-.28.22a3 3 0 01-.26.65c-.08.15-.09.23 0 .35.29.27.57.56.85.84a.66.66 0 01.06 1 .67.67 0 01-1-.05l-1-1-1.08.45v1.44a.64.64 0 01-.55.65.65.65 0 01-.69-.39 1.59 1.59 0 01-.06-.38v-1.17c0-.14 0-.19-.18-.24s-.58-.23-.91-.36l-1 1a.65.65 0 01-.7.16.63.63 0 01-.42-.52.66.66 0 01.23-.59l1-1-.38-1a.27.27 0 00-.2-.11H10a.63.63 0 01-.61-.54.65.65 0 01.42-.7.91.91 0 01.33 0h1.2a.22.22 0 00.25-.19c.09-.29.22-.58.35-.91l-1-1a.66.66 0 01-.25-.58.62.62 0 01.42-.55.62.62 0 01.68.15l.86.86a1.5 1.5 0 01.14.18c.37-.14.68-.24 1-.37a.25.25 0 00.11-.19V7.92a.66.66 0 01.84-.66.67.67 0 01.47.67v1.5"/></g></g></svg>