<svg xmlns="http://www.w3.org/2000/svg" viewBox="0 0 25 25"><g data-name="Layer 2"><path d="M0 12V2.44A2.89 2.89 0 013 0h9v12H0m6.51-5h1a.8.8 0 00.86-.8.78.78 0 00-.86-.76h-1v-1a1 1 0 000-.35.74.74 0 00-.85-.5.77.77 0 00-.66.84v1.05H4a.78.78 0 00-.84.77A.79.79 0 004 7h1v1a.78.78 0 00.78.84A.76.76 0 006.5 8V7M0 22.51V13h12v11.73a2.44 2.44 0 010 .27H2.49a.25.25 0 00-.11 0 2.87 2.87 0 01-1.85-1.2A3.83 3.83 0 010 22.51M4.91 19l-.73.71a.78.78 0 101.11 1.09c.23-.22.45-.46.7-.72.24.26.47.5.7.72a.78.78 0 101.11-1.08c-.23-.23-.47-.45-.75-.71.3-.27.56-.51.81-.77a.78.78 0 00-1.15-1.06l-.71.75c-.25-.27-.47-.51-.7-.74a.8.8 0 00-1.14 0 .78.78 0 000 1.15l.73.71M22.51 25H13a1 1 0 010-.17V13.24a1.68 1.68 0 010-.2h12v9.16a2.75 2.75 0 01-1.13 2.22 3.38 3.38 0 01-1.35.58M19 18.23h2.29a.78.78 0 100-1.56h-4.57a1.09 1.09 0 00-.46.12.77.77 0 00-.35.86.76.76 0 00.73.57H19m0 3.12h2.22a1.2 1.2 0 00.38-.05.78.78 0 00.5-.88.81.81 0 00-.84-.63h-4.52a.78.78 0 100 1.56H19M25 12H13V0h9a2.86 2.86 0 013 2.92V12zm-5.72-6.78H17a1.17 1.17 0 00-.45.09.77.77 0 00-.39.89.81.81 0 00.83.58h4.52a.8.8 0 00.88-.78.78.78 0 00-.87-.78h-2.24" fill="#fff" data-name="Layer 1"/></g></svg>