<svg xmlns="http://www.w3.org/2000/svg" viewBox="0 0 20.2 35"><g data-name="Layer 2"><path d="M0 27.28V9.85c0-.07.05-.13.06-.19a5.72 5.72 0 013-4.29 6.2 6.2 0 012.33-.67V3.56A3.62 3.62 0 018.47.08 18.58 18.58 0 0111 0a3.69 3.69 0 013.87 3.85v.82c.42.08.79.13 1.15.23a5.71 5.71 0 014.23 5.66v16.72H0M12.62 4.15a1.56 1.56 0 00-1.64-2H9.11a1.54 1.54 0 00-1.51 2zM0 28.71h20.18a3.27 3.27 0 01-.87 2.8 3.36 3.36 0 01-2.79.8v1.25A1.27 1.27 0 0115.7 35h-.55a1.33 1.33 0 01-.81-1.45v-1.18H5.86v1.18A1.32 1.32 0 015.05 35h-.54a1.26 1.26 0 01-.83-1.4v-1.25H3a2.74 2.74 0 01-2.42-1.19A8.45 8.45 0 010 29.74z" fill="#fff" data-name="Layer 1"/></g></svg>