<svg xmlns="http://www.w3.org/2000/svg" viewBox="0 0 19.83 24"><defs><style>.cls-1{fill:#fff}</style></defs><g id="Layer_2" data-name="Layer 2"><g id="Layer_1-2" data-name="Layer 1"><path class="cls-1" d="M2.38 24l-.25-.09a1.56 1.56 0 01-1-1.71 1.54 1.54 0 011.5-1.32h17.18v1.76A1.22 1.22 0 0119 24zM12.53 7.75L13.84 9a1.05 1.05 0 001.82-.77V0h3a1 1 0 011.12 1.1v18.48a1.34 1.34 0 010 .19H5.26V0h4.15v8.26a1 1 0 00.85 1.09 1.05 1.05 0 001-.32l1.29-1.28"/><path class="cls-1" d="M4.15 19.8H2.87a3.1 3.1 0 00-2.8 2.41.15.15 0 01-.06.11V3.2A3.11 3.11 0 013.21 0h.94zM13.9 6.75A1.82 1.82 0 0012.52 6a1.87 1.87 0 00-1.35.78V0h2.73z"/></g></g></svg>