<svg xmlns="http://www.w3.org/2000/svg" viewBox="0 0 287.66 90.21"><g data-name="Layer 2"><g data-name="Layer 1"><path fill="#253651" d="M0 0h116.36v90.21H0z"/><path d="M136.34 9.88c6.36 0 10.6 3.17 10.6 9a8 8 0 01-5.23 7.82l5.76 10.59h-6.22l-4.84-9.6h-4v9.6h-5.76V9.88zm-3.89 4.92V23h4.19c2.59 0 4.39-1.3 4.39-4.08s-1.87-4.12-4.54-4.12zm22.57 22.53V9.88h17.65v4.92h-11.78v6.25h9.99v4.73h-9.99v6.64h12.35v4.91h-18.22zm28.59-27.45l6.29 11.25 6.29-11.25h6.64l-9.99 16.82v10.63h-5.87V26.7l-9.95-16.82h6.59zm-42.47 70.44c-8.31 0-14.45-6-14.45-14.18S132.91 52 141.33 52a18 18 0 018.16 1.94v3.51a18 18 0 00-8.24-2.06c-6.52 0-10.86 4.58-10.86 10.79A10.44 10.44 0 00141.14 77a14.64 14.64 0 005.41-1v-8.3h3.59v10.53a20.22 20.22 0 01-9 2.09m17.96-.45V52.41h3.65v24.37h11.82v3.09H159.1zM193.22 52a14.18 14.18 0 11-14.07 14.18A13.95 13.95 0 01193.22 52m0 25c5.94 0 10.33-4.58 10.33-10.79s-4.39-10.79-10.33-10.79-10.37 4.58-10.37 10.79S187.27 77 193.22 77m41.17-4.87c0 4.65-3.66 7.74-9.11 7.74h-9.41V52.42h8.42c5.41 0 9 2.82 9 7.51a6.06 6.06 0 01-3.43 5.53 7 7 0 014.53 6.67m-7.7-7.82a4 4 0 002.86-4.19c0-2.82-1.87-4.73-5-4.73h-5.15v8.92zm-7.28 12.58h6c3.16 0 5.26-2 5.26-4.92s-1.83-4.8-4.54-4.8h-6.71zM252.39 52h.08l12.65 27.91h-3.89l-2.7-6.1h-12.24l-2.67 6.1h-3.89zm4.8 18.79c-1.86-4.19-3.27-7.47-4.76-11.36-1.53 3.89-2.94 7.17-4.81 11.36zm14.99 9.08V52.41h3.66v24.37h11.82v3.09h-15.48zM83 55.17l10.26-34.34L73.4 48.31 58.18 18.69 43 48.31 23.1 20.83l10.31 34.34L6.8 38.39 28.2 73.8h60l21.4-35.41zm1.53-16.67L78.39 58l-3.31-6.46zm-52.7 0l9.45 13.08L38 58zm-1.78 32l-13.28-22 18.08 11.44L38 70.52zm12.34 0h-1l-2.33-7.78L51.8 70.5zm-1.64-10.71l2.68-5.23 8.74 12.09zm17.43 9.57L45.12 51.29l13.06-25.43 13.06 25.43zm14.74-14.8l2.69 5.23-11.42 6.86zm2 16H64.51l12.74-7.78zm11.4 0h-8L81.51 60l18.08-11.4z" fill="#fff"/></g></g></svg>