<svg xmlns="http://www.w3.org/2000/svg" viewBox="0 0 292.32 90.21"><g data-name="Layer 2"><g data-name="Layer 1"><path d="M0 0h116.36v90.21H0zm141 9.88c6.37 0 10.6 3.17 10.6 9a8 8 0 01-5.23 7.82l5.76 10.59h-6.21l-4.85-9.6h-4v9.6h-5.76V9.88zm-3.89 4.92V23h4.2c2.59 0 4.38-1.3 4.38-4.08s-1.87-4.12-4.54-4.12zm22.57 22.53V9.88h17.66v4.92h-11.79v6.25h9.99v4.73h-9.99v6.64h12.36v4.91h-18.23zm28.6-27.45l6.29 11.25 6.29-11.25h6.63L197.5 26.7v10.64h-5.87V26.7l-9.95-16.82h6.6zM145.8 80.32c-8.31 0-14.45-6-14.45-14.18S137.57 52 146 52a17.94 17.94 0 018.16 1.94v3.51a18 18 0 00-8.23-2.06c-6.52 0-10.87 4.58-10.87 10.79A10.44 10.44 0 00145.8 77a14.65 14.65 0 005.42-1v-8.3h3.58v10.53a20.22 20.22 0 01-9 2.09m17.96-.45V52.41h3.66v24.37h11.82v3.09h-15.48zM197.88 52a14.18 14.18 0 11-14.07 14.18A13.94 13.94 0 01197.88 52m0 25c6 0 10.33-4.57 10.33-10.79s-4.38-10.79-10.33-10.79-10.37 4.58-10.37 10.79S191.94 77 197.88 77m41.18-4.87c0 4.65-3.66 7.74-9.12 7.74h-9.41V52.42H229c5.42 0 9 2.82 9 7.51a6 6 0 01-3.43 5.53 7.06 7.06 0 014.54 6.67m-7.7-7.82a4 4 0 002.86-4.19c0-2.82-1.87-4.73-5-4.73h-5.15v8.92zm-7.29 12.58h6c3.17 0 5.26-2 5.26-4.92s-1.83-4.8-4.54-4.8h-6.71zM257.05 52h.08l12.66 27.91h-3.89l-2.71-6.1H251l-2.67 6.1h-3.93zm4.81 18.79c-1.87-4.19-3.28-7.47-4.77-11.36-1.52 3.89-2.93 7.17-4.8 11.36zm14.98 9.08V52.41h3.66v24.37h11.82v3.09h-15.48z" fill="#fff"/><path d="M87.61 55.17l10.31-34.34-19.86 27.48-15.22-29.62-15.21 29.62-19.87-27.48 10.32 34.34-26.62-16.78 21.4 35.41h60l21.4-35.41zm1.58-16.67L83.06 58l-3.32-6.46zm-52.7 0l9.45 13.08L42.63 58zm-1.78 32l-13.28-22L39.51 60l3.18 10.57zm12.34 0h-.94l-2.34-7.78 12.74 7.78zm-1.64-10.71l2.69-5.23 8.73 12.09zm17.43 9.57L49.78 51.29l13.06-25.43 13.07 25.43zm14.75-14.8l2.68 5.23-11.42 6.86zm2 16H69.18l12.73-7.78zm11.39 0H83L86.18 60l18.07-11.4z" fill="#253651"/></g></g></svg>